%FSLAX35Y35*%
%MOIN*%
G04 16=Kupferoben/CoppertopL1(X.Top)*
%ADD10C,0.00591*%
%ADD11C,0.00252*%
%ADD12C,0.00409*%
%ADD13C,0.00422*%
%ADD14C,0.00472*%
%ADD15C,0.00500*%
%ADD16C,0.00504*%
%ADD17C,0.00512*%
%ADD18C,0.00650*%
%ADD19C,0.00768*%
%ADD20C,0.00787*%
%ADD21C,0.01000*%
%ADD22C,0.01024*%
%ADD23C,0.01181*%
%ADD24C,0.01575*%
%ADD25C,0.01969*%
%ADD26C,0.02362*%
%ADD27C,0.03937*%
%AMR_28*21,1,0.00787,0.00787,0,0,0.000*%
%ADD28R_28*%
%AMR_29*21,1,0.01575,0.01575,0,0,0.000*%
%ADD29R_29*%
%AMR_30*21,1,0.02100,0.02100,0,0,0.000*%
%ADD30R_30*%
%AMR_31*21,1,0.02362,0.02362,0,0,0.000*%
%ADD31R_31*%
%AMR_32*21,1,0.03150,0.07874,0,0,90.000*%
%ADD32R_32*%
%AMR_33*21,1,0.03150,0.07874,0,0,270.000*%
%ADD33R_33*%
%AMR_34*21,1,0.05000,0.05000,0,0,0.000*%
%ADD34R_34*%
%AMR_35*21,1,0.05000,0.05000,0,0,180.000*%
%ADD35R_35*%
%AMR_36*21,1,0.08268,0.08268,0,0,270.000*%
%ADD36R_36*%
%AMOCT_37*4,1,8,0.023622,0.011811,0.011811,0.023622,-0.011811,0.023622,-0.023622,0.011811,-0.023622,-0.011811,-0.011811,-0.023622,0.011811,-0.023622,0.023622,-0.011811,0.023622,0.011811,0.000*%
%ADD37OCT_37*%
%AMOCT_38*4,1,8,0.031496,0.015748,0.015748,0.031496,-0.015748,0.031496,-0.031496,0.015748,-0.031496,-0.015748,-0.015748,-0.031496,0.015748,-0.031496,0.031496,-0.015748,0.031496,0.015748,270.000*%
%ADD38OCT_38*%
%AMOCT_39*4,1,8,0.035433,0.017717,0.017717,0.035433,-0.017717,0.035433,-0.035433,0.017717,-0.035433,-0.017717,-0.017717,-0.035433,0.017717,-0.035433,0.035433,-0.017717,0.035433,0.017717,180.000*%
%ADD39OCT_39*%
%AMOCT_40*4,1,8,0.035433,0.017717,0.017717,0.035433,-0.017717,0.035433,-0.035433,0.017717,-0.035433,-0.017717,-0.017717,-0.035433,0.017717,-0.035433,0.035433,-0.017717,0.035433,0.017717,270.000*%
%ADD40OCT_40*%
%AMOCT_41*4,1,8,0.039370,0.019685,0.019685,0.039370,-0.019685,0.039370,-0.039370,0.019685,-0.039370,-0.019685,-0.019685,-0.039370,0.019685,-0.039370,0.039370,-0.019685,0.039370,0.019685,90.000*%
%ADD41OCT_41*%
%AMOCT_42*4,1,8,0.041339,0.020669,0.020669,0.041339,-0.020669,0.041339,-0.041339,0.020669,-0.041339,-0.020669,-0.020669,-0.041339,0.020669,-0.041339,0.041339,-0.020669,0.041339,0.020669,180.000*%
%ADD42OCT_42*%
%AMOCT_43*4,1,8,0.041339,0.020669,0.020669,0.041339,-0.020669,0.041339,-0.041339,0.020669,-0.041339,-0.020669,-0.020669,-0.041339,0.020669,-0.041339,0.041339,-0.020669,0.041339,0.020669,270.000*%
%ADD43OCT_43*%
%AMOCT_44*4,1,8,0.050000,0.012500,0.037500,0.025000,-0.037500,0.025000,-0.050000,0.012500,-0.050000,-0.012500,-0.037500,-0.025000,0.037500,-0.025000,0.050000,-0.012500,0.050000,0.012500,270.000*%
%ADD44OCT_44*%
%AMOCT_45*4,1,8,0.050000,0.014764,0.035236,0.029528,-0.035236,0.029528,-0.050000,0.014764,-0.050000,-0.014764,-0.035236,-0.029528,0.035236,-0.029528,0.050000,-0.014764,0.050000,0.014764,270.000*%
%ADD45OCT_45*%
%ADD46O,0.05906X0.02559*%
%AMRR_47*21,1,0.02559,0.05394,0,0,270.000*21,1,0.02047,0.05906,0,0,270.000*1,1,0.00512,0.02697,-0.01024*1,1,0.00512,-0.02697,0.01024*1,1,0.00512,-0.02697,-0.01024*1,1,0.00512,0.02697,0.01024*%
%ADD47RR_47*%
%AMRR_48*21,1,0.06299,0.05039,0,0,270.000*21,1,0.05039,0.06299,0,0,270.000*1,1,0.01260,0.02520,-0.02520*1,1,0.01260,-0.02520,0.02520*1,1,0.01260,-0.02520,-0.02520*1,1,0.01260,0.02520,0.02520*%
%ADD48RR_48*%
%AMRR_49*21,1,0.07874,0.06299,0,0,90.000*21,1,0.06299,0.07874,0,0,90.000*1,1,0.01575,-0.03150,0.03150*1,1,0.01575,0.03150,-0.03150*1,1,0.01575,0.03150,0.03150*1,1,0.01575,-0.03150,-0.03150*%
%ADD49RR_49*%
G54D23*
X170210Y173450D02*
X178624Y173450D01*
X53832Y5201D02*
X65465Y5201D01*
X96463Y5201D02*
X137670Y5201D01*
X147556Y5201D02*
X160021Y5201D01*
X172134Y5201D02*
X173558Y5201D01*
X50330Y7563D02*
X65465Y7563D01*
X96463Y7563D02*
X136904Y7563D01*
X148322Y7563D02*
X159582Y7563D01*
X172574Y7563D02*
X177163Y7563D01*
X47049Y9926D02*
X65465Y9926D01*
X96463Y9926D02*
X136904Y9926D01*
X148322Y9926D02*
X159582Y9926D01*
X172574Y9926D02*
X180539Y9926D01*
X43955Y12288D02*
X65465Y12288D01*
X96463Y12288D02*
X160959Y12288D01*
X171197Y12288D02*
X183571Y12288D01*
X41172Y14650D02*
X66083Y14650D01*
X75872Y14650D02*
X76052Y14650D01*
X85908Y14650D02*
X86056Y14650D01*
X95846Y14650D02*
X186448Y14650D01*
X38494Y17012D02*
X78414Y17012D01*
X83546Y17012D02*
X118474Y17012D01*
X124349Y17012D02*
X189165Y17012D01*
X36005Y19374D02*
X116490Y19374D01*
X149109Y19374D02*
X159582Y19374D01*
X172574Y19374D02*
X191652Y19374D01*
X33668Y21737D02*
X116490Y21737D01*
X149109Y21737D02*
X159582Y21737D01*
X172574Y21737D02*
X193968Y21737D01*
X31433Y24099D02*
X37706Y24099D01*
X45117Y24099D02*
X117111Y24099D01*
X149109Y24099D02*
X159582Y24099D01*
X172574Y24099D02*
X193968Y24099D01*
X29372Y26461D02*
X35703Y26461D01*
X47120Y26461D02*
X193968Y26461D01*
X27366Y28823D02*
X35703Y28823D01*
X47120Y28823D02*
X129357Y28823D01*
X137710Y28823D02*
X139357Y28823D01*
X147710Y28823D02*
X149357Y28823D01*
X157710Y28823D02*
X159357Y28823D01*
X167710Y28823D02*
X169357Y28823D01*
X177710Y28823D02*
X179357Y28823D01*
X187710Y28823D02*
X193968Y28823D01*
X25536Y31186D02*
X35703Y31186D01*
X47120Y31186D02*
X127037Y31186D01*
X190030Y31186D02*
X193968Y31186D01*
X23739Y33548D02*
X36682Y33548D01*
X46140Y33548D02*
X127037Y33548D01*
X190030Y33548D02*
X193968Y33548D01*
X22103Y35910D02*
X35703Y35910D01*
X47120Y35910D02*
X127037Y35910D01*
X190030Y35910D02*
X193968Y35910D01*
X20498Y38272D02*
X35703Y38272D01*
X47120Y38272D02*
X128110Y38272D01*
X188957Y38272D02*
X193968Y38272D01*
X19027Y40634D02*
X35703Y40634D01*
X47120Y40634D02*
X109777Y40634D01*
X118045Y40634D02*
X125046Y40634D01*
X192021Y40634D02*
X193968Y40634D01*
X17601Y42997D02*
X35753Y42997D01*
X47070Y42997D02*
X109777Y42997D01*
X118045Y42997D02*
X122684Y42997D01*
X16275Y45359D02*
X78877Y45359D01*
X83946Y45359D02*
X110734Y45359D01*
X117088Y45359D02*
X122037Y45359D01*
X15017Y47721D02*
X76515Y47721D01*
X105595Y47721D02*
X122037Y47721D01*
X13817Y50083D02*
X76490Y50083D01*
X107957Y50083D02*
X122421Y50083D01*
X12717Y52445D02*
X57904Y52445D01*
X62419Y52445D02*
X76707Y52445D01*
X110320Y52445D02*
X124349Y52445D01*
X11630Y54808D02*
X56027Y54808D01*
X64295Y54808D02*
X79070Y54808D01*
X83753Y54808D02*
X95273Y54808D01*
X99512Y54808D02*
X102660Y54808D01*
X112682Y54808D02*
X122825Y54808D01*
X10680Y57170D02*
X26269Y57170D01*
X36554Y57170D02*
X56027Y57170D01*
X64295Y57170D02*
X64774Y57170D01*
X80249Y57170D02*
X80816Y57170D01*
X87007Y57170D02*
X93259Y57170D01*
X101527Y57170D02*
X105022Y57170D01*
X115044Y57170D02*
X122825Y57170D01*
X9731Y59532D02*
X24718Y59532D01*
X38104Y59532D02*
X57408Y59532D01*
X88833Y59532D02*
X93259Y59532D01*
X101527Y59532D02*
X107384Y59532D01*
X115862Y59532D02*
X122983Y59532D01*
X8889Y61894D02*
X24718Y61894D01*
X38104Y61894D02*
X52342Y61894D01*
X88833Y61894D02*
X93592Y61894D01*
X100284Y61894D02*
X108775Y61894D01*
X115862Y61894D02*
X123786Y61894D01*
X8084Y64256D02*
X24718Y64256D01*
X38104Y64256D02*
X51490Y64256D01*
X88054Y64256D02*
X91490Y64256D01*
X101333Y64256D02*
X108775Y64256D01*
X115862Y64256D02*
X122037Y64256D01*
X7329Y66619D02*
X26363Y66619D01*
X36460Y66619D02*
X51490Y66619D01*
X83990Y66619D02*
X91490Y66619D01*
X101333Y66619D02*
X108775Y66619D01*
X115862Y66619D02*
X122037Y66619D01*
X6663Y68981D02*
X53243Y68981D01*
X83990Y68981D02*
X89005Y68981D01*
X100830Y68981D02*
X101369Y68981D01*
X106454Y68981D02*
X108775Y68981D01*
X115862Y68981D02*
X122037Y68981D01*
X5997Y71343D02*
X25506Y71343D01*
X37317Y71343D02*
X54178Y71343D01*
X83990Y71343D02*
X86643Y71343D01*
X99561Y71343D02*
X99777Y71343D01*
X108045Y71343D02*
X108775Y71343D01*
X115862Y71343D02*
X123681Y71343D01*
X5457Y73705D02*
X25506Y73705D01*
X37317Y73705D02*
X54178Y73705D01*
X83990Y73705D02*
X86490Y73705D01*
X99561Y73705D02*
X99777Y73705D01*
X108045Y73705D02*
X108775Y73705D01*
X4926Y76067D02*
X25506Y76067D01*
X37317Y76067D02*
X54178Y76067D01*
X83990Y76067D02*
X85656Y76067D01*
X99561Y76067D02*
X101443Y76067D01*
X106380Y76067D02*
X108775Y76067D01*
X4458Y78430D02*
X25506Y78430D01*
X37317Y78430D02*
X52920Y78430D01*
X101052Y78430D02*
X101120Y78430D01*
X107827Y78430D02*
X107986Y78430D01*
X4058Y80792D02*
X25803Y80792D01*
X37019Y80792D02*
X52269Y80792D01*
X117378Y80792D02*
X123129Y80792D01*
X3659Y83154D02*
X52269Y83154D01*
X117378Y83154D02*
X122526Y83154D01*
X3388Y85516D02*
X52269Y85516D01*
X117378Y85516D02*
X121428Y85516D01*
X3118Y87878D02*
X52269Y87878D01*
X117378Y87878D02*
X119512Y87878D01*
X2909Y90241D02*
X53809Y90241D01*
X60847Y90241D02*
X61647Y90241D01*
X68684Y90241D02*
X69484Y90241D01*
X76522Y90241D02*
X77322Y90241D01*
X84360Y90241D02*
X85287Y90241D01*
X92324Y90241D02*
X93124Y90241D01*
X100162Y90241D02*
X102127Y90241D01*
X106820Y90241D02*
X108724Y90241D01*
X115913Y90241D02*
X119512Y90241D01*
X2767Y92603D02*
X119341Y92603D01*
X2625Y94965D02*
X85729Y94965D01*
X2606Y97327D02*
X83367Y97327D01*
X2590Y99689D02*
X81005Y99689D01*
X3013Y102052D02*
X43642Y102052D01*
X3013Y104414D02*
X41280Y104414D01*
X3013Y106776D02*
X20276Y106776D01*
X28767Y106776D02*
X32942Y106776D01*
X3013Y109138D02*
X18616Y109138D01*
X30427Y109138D02*
X31608Y109138D01*
X45464Y109138D02*
X46116Y109138D01*
X57927Y109138D02*
X59108Y109138D01*
X3013Y111500D02*
X18616Y111500D01*
X30427Y111500D02*
X31608Y111500D01*
X44994Y111500D02*
X46116Y111500D01*
X57927Y111500D02*
X59108Y111500D01*
X3013Y113863D02*
X18616Y113863D01*
X30427Y113863D02*
X31608Y113863D01*
X44994Y113863D02*
X46116Y113863D01*
X57927Y113863D02*
X59108Y113863D01*
X3013Y116225D02*
X20803Y116225D01*
X28240Y116225D02*
X33469Y116225D01*
X43133Y116225D02*
X48303Y116225D01*
X55740Y116225D02*
X60969Y116225D01*
X70633Y116225D02*
X73666Y116225D01*
X85878Y116225D02*
X86490Y116225D01*
X3013Y118587D02*
X64607Y118587D01*
X83515Y118587D02*
X87849Y118587D01*
X3485Y120949D02*
X62245Y120949D01*
X81153Y120949D02*
X90309Y120949D01*
X4036Y123311D02*
X59883Y123311D01*
X78791Y123311D02*
X90309Y123311D01*
X4588Y125674D02*
X57520Y125674D01*
X76429Y125674D02*
X91914Y125674D01*
X5272Y128036D02*
X55158Y128036D01*
X68951Y128036D02*
X74950Y128036D01*
X82873Y128036D02*
X90678Y128036D01*
X5956Y130398D02*
X42186Y130398D01*
X61704Y130398D02*
X62651Y130398D01*
X68951Y130398D02*
X73990Y130398D01*
X90027Y130398D02*
X90309Y130398D01*
X6721Y132760D02*
X34458Y132760D01*
X59342Y132760D02*
X61958Y132760D01*
X69644Y132760D02*
X73990Y132760D01*
X7543Y135123D02*
X19430Y135123D01*
X29613Y135123D02*
X32096Y135123D01*
X46370Y135123D02*
X46930Y135123D01*
X57113Y135123D02*
X59596Y135123D01*
X72007Y135123D02*
X75635Y135123D01*
X111460Y135123D02*
X116196Y135123D01*
X8395Y137485D02*
X18616Y137485D01*
X30427Y137485D02*
X31608Y137485D01*
X44994Y137485D02*
X46116Y137485D01*
X57927Y137485D02*
X59108Y137485D01*
X72494Y137485D02*
X76490Y137485D01*
X111593Y137485D02*
X116196Y137485D01*
X9359Y139847D02*
X18616Y139847D01*
X30427Y139847D02*
X31608Y139847D01*
X44994Y139847D02*
X46116Y139847D01*
X57927Y139847D02*
X59108Y139847D01*
X72494Y139847D02*
X76490Y139847D01*
X112514Y139847D02*
X116196Y139847D01*
X10322Y142209D02*
X19288Y142209D01*
X29756Y142209D02*
X31953Y142209D01*
X44649Y142209D02*
X46788Y142209D01*
X57256Y142209D02*
X59453Y142209D01*
X72149Y142209D02*
X77721Y142209D01*
X112514Y142209D02*
X116196Y142209D01*
X11418Y144571D02*
X21650Y144571D01*
X27393Y144571D02*
X34316Y144571D01*
X42286Y144571D02*
X49150Y144571D01*
X54893Y144571D02*
X61816Y144571D01*
X69786Y144571D02*
X77868Y144571D01*
X112011Y144571D02*
X116196Y144571D01*
X12530Y146934D02*
X79597Y146934D01*
X109955Y146934D02*
X117122Y146934D01*
X13740Y149296D02*
X71190Y149296D01*
X76633Y149296D02*
X81959Y149296D01*
X108363Y149296D02*
X119484Y149296D01*
X15008Y151658D02*
X68990Y151658D01*
X78833Y151658D02*
X84321Y151658D01*
X106001Y151658D02*
X122054Y151658D01*
X16343Y154020D02*
X68990Y154020D01*
X17777Y156382D02*
X69394Y156382D01*
X19256Y158745D02*
X74465Y158745D01*
X20865Y161107D02*
X74379Y161107D01*
X22510Y163469D02*
X73990Y163469D01*
X24309Y165831D02*
X73990Y165831D01*
X26146Y168193D02*
X76205Y168193D01*
X81617Y168193D02*
X100384Y168193D01*
X107438Y168193D02*
X109271Y168193D01*
X118552Y168193D02*
X182292Y168193D01*
X28149Y170556D02*
X98596Y170556D01*
X120014Y170556D02*
X140508Y170556D01*
X152982Y170556D02*
X165086Y170556D01*
X175333Y170556D02*
X176044Y170556D01*
X30214Y172918D02*
X98596Y172918D01*
X120014Y172918D02*
X140249Y172918D01*
X153241Y172918D02*
X164501Y172918D01*
X32442Y175280D02*
X98884Y175280D01*
X120014Y175280D02*
X140249Y175280D01*
X153241Y175280D02*
X164501Y175280D01*
X183045Y175280D02*
X183262Y175280D01*
X34780Y177642D02*
X101246Y177642D01*
X106576Y177642D02*
X110133Y177642D01*
X117690Y177642D02*
X176768Y177642D01*
X181055Y177642D02*
X183052Y177642D01*
X37256Y180004D02*
X180690Y180004D01*
X39928Y182367D02*
X101211Y182367D01*
X106611Y182367D02*
X110098Y182367D01*
X117725Y182367D02*
X178327Y182367D01*
X42705Y184729D02*
X98849Y184729D01*
X120014Y184729D02*
X140249Y184729D01*
X153241Y184729D02*
X163714Y184729D01*
X45770Y187091D02*
X98596Y187091D01*
X120014Y187091D02*
X140249Y187091D01*
X153241Y187091D02*
X163714Y187091D01*
X49030Y189453D02*
X98596Y189453D01*
X120014Y189453D02*
X140370Y189453D01*
X153120Y189453D02*
X163834Y189453D01*
X176585Y189453D02*
X178081Y189453D01*
X52503Y191815D02*
X100419Y191815D01*
X107403Y191815D02*
X109306Y191815D01*
X118517Y191815D02*
X174576Y191815D01*
X4952Y75954D02*
X4952Y126931D01*
X7314Y66673D02*
X7314Y134465D01*
X9676Y59669D02*
X9676Y140626D01*
X12038Y53903D02*
X12038Y145888D01*
X14401Y48878D02*
X14401Y150527D01*
X16763Y44443D02*
X16763Y154711D01*
X19125Y40472D02*
X19125Y107927D01*
X19125Y114547D02*
X19125Y135427D01*
X19125Y142047D02*
X19125Y158552D01*
X21487Y36816D02*
X21487Y105565D01*
X21487Y116909D02*
X21487Y133065D01*
X21487Y144409D02*
X21487Y162020D01*
X23849Y33402D02*
X23849Y105331D01*
X23849Y117142D02*
X23849Y132831D01*
X23849Y144642D02*
X23849Y165228D01*
X26212Y30298D02*
X26212Y57227D01*
X26212Y66467D02*
X26212Y70053D01*
X26212Y81200D02*
X26212Y105331D01*
X26212Y117142D02*
X26212Y132831D01*
X26212Y144642D02*
X26212Y168271D01*
X28574Y27401D02*
X28574Y55154D01*
X28574Y68540D02*
X28574Y69721D01*
X28574Y81532D02*
X28574Y106583D01*
X28574Y115891D02*
X28574Y134083D01*
X28574Y143391D02*
X28574Y171056D01*
X30936Y24624D02*
X30936Y55154D01*
X30936Y68540D02*
X30936Y69721D01*
X30936Y81532D02*
X30936Y173683D01*
X33298Y22127D02*
X33298Y55154D01*
X33298Y68540D02*
X33298Y69721D01*
X33298Y81532D02*
X33298Y106420D01*
X33298Y116054D02*
X33298Y133920D01*
X33298Y143554D02*
X33298Y176188D01*
X35660Y19702D02*
X35660Y56276D01*
X35660Y67418D02*
X35660Y69721D01*
X35660Y81532D02*
X35660Y104544D01*
X35660Y117930D02*
X35660Y132044D01*
X35660Y145430D02*
X35660Y178482D01*
X38023Y17459D02*
X38023Y23782D01*
X38023Y44446D02*
X38023Y58639D01*
X38023Y65056D02*
X38023Y104544D01*
X38023Y117930D02*
X38023Y132044D01*
X38023Y145430D02*
X38023Y180731D01*
X40385Y15321D02*
X40385Y23028D01*
X40385Y44446D02*
X40385Y104544D01*
X40385Y117930D02*
X40385Y132044D01*
X40385Y145430D02*
X40385Y182758D01*
X42747Y13308D02*
X42747Y23028D01*
X42747Y44446D02*
X42747Y102947D01*
X42747Y116611D02*
X42747Y129837D01*
X42747Y144111D02*
X42747Y184761D01*
X45109Y11407D02*
X45109Y24091D01*
X45109Y44446D02*
X45109Y101837D01*
X45109Y109493D02*
X45109Y128087D01*
X45109Y136383D02*
X45109Y186582D01*
X47472Y9603D02*
X47472Y101837D01*
X47472Y115393D02*
X47472Y128087D01*
X47472Y134386D02*
X47472Y134581D01*
X47472Y142893D02*
X47472Y188378D01*
X49834Y7902D02*
X49834Y101837D01*
X49834Y117142D02*
X49834Y128087D01*
X49834Y144642D02*
X49834Y190008D01*
X52196Y6292D02*
X52196Y62040D01*
X52196Y67934D02*
X52196Y101837D01*
X52196Y117142D02*
X52196Y128087D01*
X52196Y144642D02*
X52196Y191626D01*
X54558Y4761D02*
X54558Y60066D01*
X54558Y90990D02*
X54558Y101837D01*
X54558Y117142D02*
X54558Y128087D01*
X54558Y144642D02*
X54558Y193079D01*
X56920Y3330D02*
X56920Y53429D01*
X56920Y59045D02*
X56920Y60066D01*
X56920Y91449D02*
X56920Y101837D01*
X56920Y115044D02*
X56920Y126274D01*
X56920Y134386D02*
X56920Y134929D01*
X56920Y142544D02*
X56920Y193793D01*
X59283Y2839D02*
X59283Y52103D01*
X59283Y91449D02*
X59283Y101837D01*
X59283Y114538D02*
X59283Y123911D01*
X59283Y132820D02*
X59283Y135436D01*
X59283Y142038D02*
X59283Y193793D01*
X61645Y2839D02*
X61645Y52103D01*
X61645Y90239D02*
X61645Y101837D01*
X61645Y116900D02*
X61645Y121549D01*
X61645Y130458D02*
X61645Y133073D01*
X61645Y144400D02*
X61645Y193793D01*
X64007Y2839D02*
X64007Y54034D01*
X64007Y91449D02*
X64007Y101837D01*
X64007Y117930D02*
X64007Y119187D01*
X64007Y145430D02*
X64007Y193793D01*
X66369Y2839D02*
X66369Y3962D01*
X66369Y14937D02*
X66369Y56837D01*
X66369Y91449D02*
X66369Y101837D01*
X66369Y117930D02*
X66369Y118087D01*
X66369Y145430D02*
X66369Y193793D01*
X68731Y17008D02*
X68731Y56837D01*
X68731Y90194D02*
X68731Y101837D01*
X68731Y117930D02*
X68731Y118087D01*
X68731Y145430D02*
X68731Y193793D01*
X71094Y17008D02*
X71094Y56837D01*
X71094Y91449D02*
X71094Y101837D01*
X71094Y115764D02*
X71094Y118087D01*
X71094Y126886D02*
X71094Y134210D01*
X71094Y143264D02*
X71094Y149392D01*
X71094Y158081D02*
X71094Y193793D01*
X73456Y17008D02*
X73456Y56837D01*
X73456Y91449D02*
X73456Y101837D01*
X73456Y114386D02*
X73456Y116435D01*
X73456Y126886D02*
X73456Y148816D01*
X73456Y158658D02*
X73456Y193793D01*
X75818Y14704D02*
X75818Y56538D01*
X75818Y90945D02*
X75818Y101837D01*
X75818Y126284D02*
X75818Y127168D01*
X75818Y135306D02*
X75818Y148816D01*
X75818Y167806D02*
X75818Y193793D01*
X78180Y16779D02*
X78180Y46056D01*
X78180Y53918D02*
X78180Y56538D01*
X78180Y91099D02*
X78180Y101837D01*
X78180Y123922D02*
X78180Y126316D01*
X78180Y145517D02*
X78180Y150843D01*
X78180Y168658D02*
X78180Y193793D01*
X80542Y17042D02*
X80542Y45066D01*
X80542Y54908D02*
X80542Y57443D01*
X80542Y91449D02*
X80542Y100152D01*
X80542Y121560D02*
X80542Y126316D01*
X80542Y147879D02*
X80542Y153522D01*
X80542Y168658D02*
X80542Y193793D01*
X82905Y17042D02*
X82905Y45066D01*
X82905Y54908D02*
X82905Y56316D01*
X82905Y91449D02*
X82905Y97789D01*
X82905Y119198D02*
X82905Y128068D01*
X82905Y150241D02*
X82905Y153522D01*
X82905Y166906D02*
X82905Y193793D01*
X85267Y15292D02*
X85267Y46444D01*
X85267Y53530D02*
X85267Y56316D01*
X85267Y66158D02*
X85267Y77560D01*
X85267Y90221D02*
X85267Y95427D01*
X85267Y116836D02*
X85267Y128289D01*
X85267Y152280D02*
X85267Y153522D01*
X85267Y166886D02*
X85267Y193793D01*
X87629Y16223D02*
X87629Y46444D01*
X87629Y53530D02*
X87629Y57792D01*
X87629Y64682D02*
X87629Y70357D01*
X87629Y91449D02*
X87629Y93087D01*
X87629Y118367D02*
X87629Y128289D01*
X87629Y152280D02*
X87629Y153522D01*
X87629Y166886D02*
X87629Y193793D01*
X89991Y17008D02*
X89991Y46444D01*
X89991Y53530D02*
X89991Y68816D01*
X89991Y91449D02*
X89991Y93087D01*
X89991Y119908D02*
X89991Y130363D01*
X89991Y152280D02*
X89991Y153522D01*
X89991Y166886D02*
X89991Y193793D01*
X92353Y17008D02*
X92353Y46444D01*
X92353Y53530D02*
X92353Y63132D01*
X92353Y90212D02*
X92353Y93087D01*
X92353Y126113D02*
X92353Y126361D01*
X92353Y152280D02*
X92353Y153522D01*
X92353Y166886D02*
X92353Y193793D01*
X94716Y2839D02*
X94716Y3118D01*
X94716Y15780D02*
X94716Y46444D01*
X94716Y53530D02*
X94716Y55365D01*
X94716Y91449D02*
X94716Y93087D01*
X94716Y152280D02*
X94716Y153522D01*
X94716Y166886D02*
X94716Y193793D01*
X97078Y2839D02*
X97078Y46444D01*
X97078Y53530D02*
X97078Y54603D01*
X97078Y91449D02*
X97078Y93087D01*
X97078Y152280D02*
X97078Y153522D01*
X97078Y166886D02*
X97078Y193793D01*
X99440Y2839D02*
X99440Y46444D01*
X99440Y53530D02*
X99440Y54735D01*
X99440Y90963D02*
X99440Y93087D01*
X99440Y152280D02*
X99440Y153522D01*
X99440Y166886D02*
X99440Y169138D01*
X99440Y175836D02*
X99440Y184138D01*
X99440Y190836D02*
X99440Y193793D01*
X101802Y2839D02*
X101802Y46444D01*
X101802Y53950D02*
X101802Y68547D01*
X101802Y76427D02*
X101802Y77747D01*
X101802Y89916D02*
X101802Y93087D01*
X101802Y152280D02*
X101802Y153522D01*
X101802Y166886D02*
X101802Y167172D01*
X101802Y177802D02*
X101802Y182172D01*
X101802Y192802D02*
X101802Y193793D01*
X104164Y2839D02*
X104164Y46444D01*
X104164Y56312D02*
X104164Y68353D01*
X104164Y76621D02*
X104164Y77060D01*
X104164Y90603D02*
X104164Y93087D01*
X104164Y152280D02*
X104164Y153522D01*
X104164Y166886D02*
X104164Y167172D01*
X104164Y177802D02*
X104164Y182172D01*
X104164Y192802D02*
X104164Y193793D01*
X106527Y2839D02*
X106527Y48652D01*
X106527Y58674D02*
X106527Y69053D01*
X106527Y75920D02*
X106527Y77129D01*
X106527Y90534D02*
X106527Y93087D01*
X106527Y151133D02*
X106527Y153522D01*
X106527Y166886D02*
X106527Y167282D01*
X106527Y177692D02*
X106527Y182282D01*
X106527Y192692D02*
X106527Y193793D01*
X108889Y2839D02*
X108889Y51015D01*
X108889Y90405D02*
X108889Y93087D01*
X108889Y148770D02*
X108889Y153522D01*
X108889Y166886D02*
X108889Y168575D01*
X108889Y176398D02*
X108889Y183575D01*
X108889Y191398D02*
X108889Y193793D01*
X111251Y2839D02*
X111251Y39098D01*
X111251Y45875D02*
X111251Y53377D01*
X111251Y91525D02*
X111251Y93087D01*
X111251Y135331D02*
X111251Y137143D01*
X111251Y145331D02*
X111251Y153522D01*
X111251Y178589D02*
X111251Y181385D01*
X111251Y193589D02*
X111251Y193793D01*
X113613Y2839D02*
X113613Y38353D01*
X113613Y46621D02*
X113613Y55739D01*
X113613Y91525D02*
X113613Y93087D01*
X113613Y134386D02*
X113613Y153522D01*
X113613Y178589D02*
X113613Y181385D01*
X113613Y193589D02*
X113613Y193793D01*
X115975Y2839D02*
X115975Y38502D01*
X115975Y46472D02*
X115975Y73128D01*
X115975Y90178D02*
X115975Y93087D01*
X115975Y134821D02*
X115975Y153522D01*
X115975Y178589D02*
X115975Y181385D01*
X115975Y193589D02*
X115975Y193793D01*
X118338Y2839D02*
X118338Y17148D01*
X118338Y25326D02*
X118338Y73128D01*
X118338Y80215D02*
X118338Y93087D01*
X118338Y148149D02*
X118338Y153522D01*
X118338Y166886D02*
X118338Y167979D01*
X118338Y176995D02*
X118338Y182979D01*
X118338Y191995D02*
X118338Y193793D01*
X120700Y2839D02*
X120700Y16316D01*
X120700Y26158D02*
X120700Y73128D01*
X120700Y80215D02*
X120700Y86244D01*
X120700Y149821D02*
X120700Y153522D01*
X120700Y166886D02*
X120700Y193793D01*
X123062Y2839D02*
X123062Y16316D01*
X123062Y26158D02*
X123062Y42618D01*
X123062Y50725D02*
X123062Y53732D01*
X123062Y59611D02*
X123062Y62618D01*
X123062Y70725D02*
X123062Y72618D01*
X123062Y80725D02*
X123062Y82618D01*
X123062Y166886D02*
X123062Y193793D01*
X125424Y2839D02*
X125424Y18087D01*
X125424Y24674D02*
X125424Y40256D01*
X125424Y166886D02*
X125424Y193793D01*
X127786Y2839D02*
X127786Y18374D01*
X127786Y24674D02*
X127786Y30394D01*
X127786Y37949D02*
X127786Y40175D01*
X127786Y166886D02*
X127786Y193793D01*
X130149Y2839D02*
X130149Y18374D01*
X130149Y24674D02*
X130149Y28032D01*
X130149Y166886D02*
X130149Y193793D01*
X132511Y2839D02*
X132511Y18374D01*
X132511Y24674D02*
X132511Y27675D01*
X132511Y166886D02*
X132511Y193793D01*
X134873Y2839D02*
X134873Y18374D01*
X134873Y24674D02*
X134873Y27675D01*
X134873Y166886D02*
X134873Y193793D01*
X137235Y2839D02*
X137235Y5636D01*
X137235Y10915D02*
X137235Y17771D01*
X137235Y25277D02*
X137235Y28349D01*
X137235Y166886D02*
X137235Y193793D01*
X139597Y2839D02*
X139597Y4929D01*
X139597Y11622D02*
X139597Y17390D01*
X139597Y25658D02*
X139597Y28583D01*
X139597Y166886D02*
X139597Y193793D01*
X141960Y2839D02*
X141960Y4929D01*
X141960Y11622D02*
X141960Y17390D01*
X141960Y25658D02*
X141960Y27675D01*
X141960Y166886D02*
X141960Y169316D01*
X141960Y177584D02*
X141960Y182564D01*
X141960Y190832D02*
X141960Y193793D01*
X144322Y2839D02*
X144322Y4929D01*
X144322Y11622D02*
X144322Y17390D01*
X144322Y25658D02*
X144322Y27675D01*
X144322Y166886D02*
X144322Y169316D01*
X144322Y177584D02*
X144322Y182564D01*
X144322Y190832D02*
X144322Y193793D01*
X146684Y2839D02*
X146684Y4929D01*
X146684Y11622D02*
X146684Y17390D01*
X146684Y25658D02*
X146684Y27797D01*
X146684Y166886D02*
X146684Y169316D01*
X146684Y177584D02*
X146684Y182564D01*
X146684Y190832D02*
X146684Y193793D01*
X149046Y2839D02*
X149046Y18826D01*
X149046Y24222D02*
X149046Y29134D01*
X149046Y166886D02*
X149046Y169316D01*
X149046Y177584D02*
X149046Y182564D01*
X149046Y190832D02*
X149046Y193793D01*
X151409Y2839D02*
X151409Y27675D01*
X151409Y166886D02*
X151409Y169316D01*
X151409Y177584D02*
X151409Y182564D01*
X151409Y190832D02*
X151409Y193793D01*
X153771Y2839D02*
X153771Y27675D01*
X153771Y166886D02*
X153771Y193793D01*
X156133Y2839D02*
X156133Y27675D01*
X156133Y166886D02*
X156133Y193793D01*
X158495Y2839D02*
X158495Y29608D01*
X158495Y166886D02*
X158495Y193793D01*
X160857Y2839D02*
X160857Y4365D01*
X160857Y12186D02*
X160857Y17613D01*
X160857Y25435D02*
X160857Y27675D01*
X160857Y166886D02*
X160857Y193793D01*
X163220Y2839D02*
X163220Y4142D01*
X163220Y12410D02*
X163220Y17390D01*
X163220Y25658D02*
X163220Y27675D01*
X163220Y166886D02*
X163220Y193793D01*
X165582Y2839D02*
X165582Y4142D01*
X165582Y12410D02*
X165582Y17390D01*
X165582Y25658D02*
X165582Y27675D01*
X165582Y166886D02*
X165582Y170103D01*
X165582Y176796D02*
X165582Y182564D01*
X165582Y190832D02*
X165582Y193793D01*
X167944Y2839D02*
X167944Y4142D01*
X167944Y12410D02*
X167944Y17390D01*
X167944Y25658D02*
X167944Y29057D01*
X167944Y166886D02*
X167944Y170103D01*
X167944Y176796D02*
X167944Y182564D01*
X167944Y190832D02*
X167944Y193793D01*
X170306Y3191D02*
X170306Y4142D01*
X170306Y12410D02*
X170306Y17390D01*
X170306Y25658D02*
X170306Y27874D01*
X170306Y166886D02*
X170306Y170103D01*
X170306Y176796D02*
X170306Y182564D01*
X170306Y190832D02*
X170306Y193793D01*
X172668Y4651D02*
X172668Y27675D01*
X172668Y166886D02*
X172668Y170103D01*
X172668Y176796D02*
X172668Y182564D01*
X172668Y190832D02*
X172668Y193041D01*
X175031Y6112D02*
X175031Y27675D01*
X175031Y166886D02*
X175031Y170253D01*
X175031Y176646D02*
X175031Y182564D01*
X175031Y190832D02*
X175031Y191524D01*
X177393Y7723D02*
X177393Y28506D01*
X177393Y166886D02*
X177393Y169603D01*
X177393Y177871D02*
X177393Y183087D01*
X177393Y189386D02*
X177393Y189950D01*
X179755Y9367D02*
X179755Y28425D01*
X179755Y166886D02*
X179755Y169603D01*
X179755Y177871D02*
X179755Y180939D01*
X182117Y11155D02*
X182117Y27675D01*
X182117Y166886D02*
X182117Y168369D01*
X182117Y176580D02*
X182117Y178577D01*
X184479Y12996D02*
X184479Y27675D01*
X186842Y14992D02*
X186842Y27955D01*
X189204Y17046D02*
X189204Y30317D01*
X189204Y38026D02*
X189204Y40175D01*
X191566Y19291D02*
X191566Y40179D01*
X193928Y21580D02*
X193928Y42542D01*
X150354Y106749D02*
X158006Y106749D01*
X149561Y109111D02*
X158006Y109111D01*
X149561Y111473D02*
X159221Y111473D01*
X149561Y113835D02*
X156859Y113835D01*
X149561Y116198D02*
X154496Y116198D01*
X149561Y118560D02*
X153262Y118560D01*
X149561Y120922D02*
X153262Y120922D01*
X149561Y123284D02*
X153262Y123284D01*
X149561Y125646D02*
X153262Y125646D01*
X149561Y128009D02*
X153262Y128009D01*
X149561Y130371D02*
X153262Y130371D01*
X149561Y132733D02*
X153262Y132733D01*
X149561Y135095D02*
X153262Y135095D01*
X149561Y137457D02*
X153262Y137457D01*
X149561Y139820D02*
X153262Y139820D01*
X149561Y142182D02*
X153262Y142182D01*
X149561Y144544D02*
X153262Y144544D01*
X149561Y146906D02*
X153262Y146906D01*
X149561Y149268D02*
X153262Y149268D01*
X149561Y151631D02*
X153262Y151631D01*
X151330Y153993D02*
X151493Y153993D01*
X151333Y156355D02*
X151490Y156355D01*
X151093Y158717D02*
X151729Y158717D01*
X151585Y105517D02*
X151585Y153900D01*
X151585Y158573D02*
X151585Y160587D01*
X153948Y104386D02*
X153948Y116746D01*
X156310Y104386D02*
X156310Y114384D01*
X158672Y110314D02*
X158672Y112022D01*
X132445Y41058D02*
X184622Y41058D01*
X134807Y43420D02*
X182260Y43420D01*
X135030Y45783D02*
X182037Y45783D01*
X135030Y48145D02*
X158907Y48145D01*
X168915Y48145D02*
X182037Y48145D01*
X134222Y50507D02*
X158006Y50507D01*
X169817Y50507D02*
X182845Y50507D01*
X133142Y52869D02*
X158006Y52869D01*
X169817Y52869D02*
X182811Y52869D01*
X134242Y55231D02*
X158589Y55231D01*
X169233Y55231D02*
X182037Y55231D01*
X134242Y57594D02*
X160952Y57594D01*
X166871Y57594D02*
X182037Y57594D01*
X133660Y59956D02*
X159762Y59956D01*
X168060Y59956D02*
X182293Y59956D01*
X133705Y62318D02*
X157400Y62318D01*
X170423Y62318D02*
X183362Y62318D01*
X135030Y64680D02*
X157218Y64680D01*
X170604Y64680D02*
X182037Y64680D01*
X135030Y67042D02*
X157218Y67042D01*
X170604Y67042D02*
X182037Y67042D01*
X135030Y69405D02*
X157869Y69405D01*
X169953Y69405D02*
X182037Y69405D01*
X133153Y71767D02*
X160232Y71767D01*
X167591Y71767D02*
X183914Y71767D01*
X135030Y74129D02*
X160423Y74129D01*
X167400Y74129D02*
X182037Y74129D01*
X135030Y76491D02*
X158061Y76491D01*
X169762Y76491D02*
X182037Y76491D01*
X135030Y78853D02*
X158006Y78853D01*
X169817Y78853D02*
X182037Y78853D01*
X133514Y81216D02*
X158006Y81216D01*
X169817Y81216D02*
X183553Y81216D01*
X134964Y83578D02*
X159436Y83578D01*
X168387Y83578D02*
X182102Y83578D01*
X135030Y85940D02*
X182037Y85940D01*
X135030Y88302D02*
X158916Y88302D01*
X168907Y88302D02*
X182037Y88302D01*
X134065Y90664D02*
X157218Y90664D01*
X170604Y90664D02*
X183002Y90664D01*
X134413Y93027D02*
X157218Y93027D01*
X170604Y93027D02*
X182654Y93027D01*
X135030Y95389D02*
X157218Y95389D01*
X170604Y95389D02*
X182037Y95389D01*
X135030Y97751D02*
X158716Y97751D01*
X169107Y97751D02*
X182037Y97751D01*
X134616Y100113D02*
X148081Y100113D01*
X133862Y102475D02*
X145719Y102475D01*
X135030Y104838D02*
X143356Y104838D01*
X135030Y107200D02*
X143262Y107200D01*
X135030Y109562D02*
X143262Y109562D01*
X133311Y111924D02*
X143262Y111924D01*
X135030Y114287D02*
X143262Y114287D01*
X135030Y116649D02*
X143262Y116649D01*
X135030Y119011D02*
X143262Y119011D01*
X133356Y121373D02*
X143262Y121373D01*
X135030Y123735D02*
X143262Y123735D01*
X135030Y126098D02*
X143262Y126098D01*
X135030Y128460D02*
X143262Y128460D01*
X133907Y130822D02*
X143262Y130822D01*
X134571Y133184D02*
X143262Y133184D01*
X135030Y135546D02*
X143262Y135546D01*
X135030Y137909D02*
X143262Y137909D01*
X134459Y140271D02*
X143262Y140271D01*
X134020Y142633D02*
X143262Y142633D01*
X135030Y144995D02*
X143262Y144995D01*
X135030Y147357D02*
X143262Y147357D01*
X135010Y149720D02*
X143262Y149720D01*
X135030Y152082D02*
X143262Y152082D01*
X135030Y154444D02*
X141490Y154444D01*
X135030Y156806D02*
X141490Y156806D01*
X135030Y159168D02*
X142180Y159168D01*
X134416Y40667D02*
X134416Y43030D01*
X134416Y50313D02*
X134416Y63030D01*
X134416Y70313D02*
X134416Y73030D01*
X134416Y80313D02*
X134416Y83030D01*
X134416Y90313D02*
X134416Y93030D01*
X134416Y100313D02*
X134416Y103030D01*
X134416Y110313D02*
X134416Y113030D01*
X134416Y120313D02*
X134416Y123030D01*
X134416Y130313D02*
X134416Y133030D01*
X134416Y140313D02*
X134416Y143030D01*
X134416Y150313D02*
X134416Y151061D01*
X136779Y40451D02*
X136779Y160587D01*
X139141Y39303D02*
X139141Y160587D01*
X141503Y40667D02*
X141503Y153983D01*
X141503Y158491D02*
X141503Y160587D01*
X143865Y40667D02*
X143865Y104329D01*
X146227Y40667D02*
X146227Y101967D01*
X148590Y38752D02*
X148590Y99604D01*
X150952Y40667D02*
X150952Y98087D01*
X153314Y40667D02*
X153314Y98087D01*
X155676Y40667D02*
X155676Y98087D01*
X158038Y39191D02*
X158038Y49014D01*
X158038Y54680D02*
X158038Y61680D01*
X158038Y69574D02*
X158038Y76514D01*
X158038Y82180D02*
X158038Y89180D01*
X158038Y97074D02*
X158038Y98087D01*
X160401Y40563D02*
X160401Y46652D01*
X160401Y57043D02*
X160401Y59318D01*
X160401Y71936D02*
X160401Y74152D01*
X160401Y84543D02*
X160401Y86818D01*
X162763Y40667D02*
X162763Y45942D01*
X162763Y57753D02*
X162763Y58934D01*
X162763Y72320D02*
X162763Y73442D01*
X162763Y85253D02*
X162763Y86434D01*
X165125Y40667D02*
X165125Y45942D01*
X165125Y57753D02*
X165125Y58934D01*
X165125Y72320D02*
X165125Y73442D01*
X165125Y85253D02*
X165125Y86434D01*
X167487Y39742D02*
X167487Y46717D01*
X167487Y56978D02*
X167487Y59383D01*
X167487Y71871D02*
X167487Y74217D01*
X167487Y84478D02*
X167487Y86883D01*
X169849Y40012D02*
X169849Y61745D01*
X169849Y69508D02*
X169849Y89245D01*
X169849Y97008D02*
X169849Y98087D01*
X172212Y40667D02*
X172212Y98087D01*
X174574Y40667D02*
X174574Y98087D01*
X176936Y40293D02*
X176936Y98087D01*
X179298Y39461D02*
X179298Y98087D01*
X181660Y40667D02*
X181660Y98087D01*
X184023Y40667D02*
X184023Y41658D01*
X159561Y128458D02*
X161094Y128458D01*
X166729Y128458D02*
X167289Y128458D01*
X169091Y130820D02*
X169651Y130820D01*
X169817Y133183D02*
X172013Y133183D01*
X169817Y135545D02*
X174375Y135545D01*
X169058Y137907D02*
X176738Y137907D01*
X159561Y140269D02*
X182607Y140269D01*
X159561Y142632D02*
X159587Y142632D01*
X168236Y142632D02*
X183049Y142632D01*
X170598Y144994D02*
X182037Y144994D01*
X170604Y147356D02*
X182037Y147356D01*
X170604Y149718D02*
X182056Y149718D01*
X171709Y152080D02*
X183600Y152080D01*
X161923Y127320D02*
X161923Y128442D01*
X161923Y140253D02*
X161923Y141434D01*
X164285Y127320D02*
X164285Y128442D01*
X164285Y140253D02*
X164285Y141434D01*
X166648Y127817D02*
X166648Y128442D01*
X166648Y140253D02*
X166648Y141434D01*
X169010Y130179D02*
X169010Y130739D01*
X169010Y137955D02*
X169010Y143405D01*
X171372Y132541D02*
X171372Y151743D01*
X173734Y134904D02*
X173734Y153522D01*
X176096Y137266D02*
X176096Y153522D01*
X178459Y139628D02*
X178459Y153522D01*
X180821Y139821D02*
X180821Y153522D01*
X183183Y140845D02*
X183183Y142497D01*
X183183Y150845D02*
X183183Y152497D01*
X111726Y120499D02*
X117907Y120499D01*
X111726Y122861D02*
X120269Y122861D01*
X110246Y125223D02*
X122037Y125223D01*
X111694Y127585D02*
X122037Y127585D01*
X120011Y129948D02*
X122285Y129948D01*
X122373Y132310D02*
X123371Y132310D01*
X112151Y118136D02*
X112151Y128042D01*
X114513Y118136D02*
X114513Y128087D01*
X116875Y119467D02*
X116875Y128087D01*
X119237Y121829D02*
X119237Y129174D01*
X121600Y124192D02*
X121600Y131536D01*
X123962Y131624D02*
X123962Y131719D01*
X169817Y106749D02*
X182037Y106749D01*
X169817Y109111D02*
X182037Y109111D01*
X171240Y104386D02*
X171240Y110587D01*
X173602Y104386D02*
X173602Y110587D01*
X175964Y104386D02*
X175964Y110587D01*
X178326Y104386D02*
X178326Y110587D01*
X180688Y104386D02*
X180688Y110587D01*
X61320Y60371D02*
X61320Y60624D01*
X169907Y2960D02*
X170341Y3211D01*
X175453Y6374D01*
X180381Y9803D01*
X185117Y13493D01*
X189648Y17432D01*
X193965Y21615D01*
X193968Y21618D01*
X193968Y42581D01*
X191562Y40175D01*
X187054Y40175D01*
X190030Y37200D01*
X190030Y31143D01*
X186562Y27675D01*
X180505Y27675D01*
X178533Y29647D01*
X176562Y27675D01*
X170505Y27675D01*
X168533Y29647D01*
X166562Y27675D01*
X160505Y27675D01*
X158533Y29647D01*
X156562Y27675D01*
X150505Y27675D01*
X148533Y29647D01*
X146562Y27675D01*
X140505Y27675D01*
X138533Y29647D01*
X136562Y27675D01*
X130505Y27675D01*
X127037Y31143D01*
X127037Y37200D01*
X130013Y40175D01*
X125505Y40175D01*
X122037Y43643D01*
X122037Y49700D01*
X124566Y52228D01*
X122825Y53969D01*
X122825Y59374D01*
X124566Y61115D01*
X122037Y63643D01*
X122037Y69700D01*
X124009Y71671D01*
X122552Y73128D01*
X115862Y73128D01*
X115862Y57988D01*
X104318Y46444D01*
X85030Y46444D01*
X83652Y45066D01*
X79170Y45066D01*
X76490Y47746D01*
X76490Y52228D01*
X79170Y54908D01*
X83652Y54908D01*
X85030Y53530D01*
X101382Y53530D01*
X108775Y60923D01*
X108775Y77640D01*
X107906Y78509D01*
X106457Y77060D01*
X102490Y77060D01*
X101086Y78464D01*
X99561Y76939D01*
X99561Y70250D01*
X101333Y68478D01*
X101333Y63996D01*
X99758Y62421D01*
X101527Y60652D01*
X101527Y56822D01*
X99308Y54603D01*
X95478Y54603D01*
X93259Y56822D01*
X93259Y60652D01*
X94046Y61439D01*
X91490Y63996D01*
X91490Y68478D01*
X91828Y68816D01*
X89170Y68816D01*
X86490Y71496D01*
X86490Y74204D01*
X85656Y75038D01*
X85656Y77171D01*
X84823Y78004D01*
X83990Y77171D01*
X83990Y66158D01*
X86152Y66158D01*
X88833Y63478D01*
X88833Y58996D01*
X86152Y56316D01*
X81670Y56316D01*
X80533Y57453D01*
X79617Y56538D01*
X75135Y56538D01*
X75052Y56621D01*
X75005Y56596D01*
X74195Y56837D01*
X65107Y56837D01*
X64295Y57649D01*
X64295Y54322D01*
X62076Y52103D01*
X58246Y52103D01*
X56027Y54322D01*
X56027Y58152D01*
X57941Y60066D01*
X54170Y60066D01*
X51490Y62746D01*
X51490Y67228D01*
X54170Y69908D01*
X54178Y69908D01*
X54178Y77171D01*
X52269Y79080D01*
X52269Y88700D01*
X55018Y91449D01*
X59638Y91449D01*
X61247Y89841D01*
X62855Y91449D01*
X67475Y91449D01*
X69084Y89841D01*
X70693Y91449D01*
X75313Y91449D01*
X76922Y89841D01*
X78531Y91449D01*
X83151Y91449D01*
X84823Y89777D01*
X86496Y91449D01*
X91116Y91449D01*
X92724Y89841D01*
X94333Y91449D01*
X98953Y91449D01*
X101145Y89258D01*
X102490Y90603D01*
X106457Y90603D01*
X107772Y89289D01*
X110009Y91525D01*
X114629Y91525D01*
X117378Y88776D01*
X117378Y80215D01*
X122552Y80215D01*
X124009Y81671D01*
X122037Y83643D01*
X122037Y84907D01*
X121577Y85367D01*
X121577Y85367D01*
X121357Y85587D01*
X121357Y85587D01*
X119512Y87432D01*
X119512Y92432D01*
X118857Y93087D01*
X87607Y93087D01*
X85762Y94932D01*
X85762Y94932D01*
X78857Y101837D01*
X43857Y101837D01*
X42012Y103682D01*
X42012Y103682D01*
X41150Y104544D01*
X35174Y104544D01*
X31608Y108110D01*
X31608Y114364D01*
X35174Y117930D01*
X41428Y117930D01*
X44994Y114364D01*
X44994Y109608D01*
X46116Y108486D01*
X46116Y114038D01*
X49221Y117142D01*
X54822Y117142D01*
X57927Y114038D01*
X57927Y108436D01*
X57627Y108136D01*
X59108Y108136D01*
X59108Y114364D01*
X62674Y117930D01*
X68928Y117930D01*
X72471Y114386D01*
X75504Y114386D01*
X71803Y118087D01*
X65107Y118087D01*
X63262Y119932D01*
X63262Y119932D01*
X55107Y128087D01*
X44496Y128087D01*
X42651Y129932D01*
X42651Y129932D01*
X40540Y132044D01*
X35174Y132044D01*
X31608Y135610D01*
X31608Y141864D01*
X35174Y145430D01*
X41428Y145430D01*
X44994Y141864D01*
X44994Y136498D01*
X47106Y134386D01*
X47666Y134386D01*
X46116Y135936D01*
X46116Y141538D01*
X49221Y144642D01*
X54822Y144642D01*
X57927Y141538D01*
X57927Y135936D01*
X56377Y134386D01*
X57716Y134386D01*
X59561Y132541D01*
X59561Y132541D01*
X62651Y129451D01*
X62651Y132067D01*
X59108Y135610D01*
X59108Y141864D01*
X62674Y145430D01*
X68928Y145430D01*
X72494Y141864D01*
X72494Y135610D01*
X68951Y132067D01*
X68951Y127010D01*
X69074Y126886D01*
X75216Y126886D01*
X77061Y125041D01*
X77061Y125041D01*
X86490Y115612D01*
X86490Y117228D01*
X89170Y119908D01*
X90309Y119908D01*
X90309Y124069D01*
X92477Y126237D01*
X90309Y128405D01*
X90309Y130680D01*
X89762Y130134D01*
X89762Y130134D01*
X87917Y128289D01*
X83126Y128289D01*
X81152Y126316D01*
X76670Y126316D01*
X73990Y128996D01*
X73990Y133478D01*
X76670Y136158D01*
X76828Y136158D01*
X76490Y136496D01*
X76490Y140978D01*
X77868Y142356D01*
X77868Y145205D01*
X84944Y152280D01*
X105379Y152280D01*
X109955Y147705D01*
X109955Y146628D01*
X112514Y144069D01*
X112514Y138405D01*
X110345Y136237D01*
X112196Y134386D01*
X115541Y134386D01*
X116196Y135041D01*
X116196Y146008D01*
X118041Y147853D01*
X118041Y147853D01*
X118165Y147976D01*
X118165Y147976D01*
X120010Y149821D01*
X122159Y149821D01*
X123025Y150687D01*
X122037Y151674D01*
X122037Y153522D01*
X78833Y153522D01*
X78833Y151496D01*
X76152Y148816D01*
X71670Y148816D01*
X68990Y151496D01*
X68990Y155978D01*
X71670Y158658D01*
X74378Y158658D01*
X75541Y159821D01*
X75665Y159821D01*
X73990Y161496D01*
X73990Y165978D01*
X76670Y168658D01*
X81152Y168658D01*
X82924Y166886D01*
X110578Y166886D01*
X108355Y169110D01*
X106417Y167172D01*
X101406Y167172D01*
X98596Y169981D01*
X98596Y174992D01*
X101406Y177802D01*
X106417Y177802D01*
X108355Y175864D01*
X111080Y178589D01*
X116743Y178589D01*
X120014Y175319D01*
X120014Y169655D01*
X117245Y166886D01*
X183599Y166886D01*
X181490Y168996D01*
X181490Y170267D01*
X180826Y169603D01*
X176996Y169603D01*
X175688Y170911D01*
X174880Y170103D01*
X165539Y170103D01*
X164501Y171141D01*
X164501Y175758D01*
X165539Y176796D01*
X174880Y176796D01*
X175401Y176276D01*
X176996Y177871D01*
X180826Y177871D01*
X183045Y175652D01*
X183045Y175033D01*
X183262Y175250D01*
X183262Y177432D01*
X177607Y183087D01*
X175730Y183087D01*
X175207Y182564D01*
X165213Y182564D01*
X163714Y184063D01*
X163714Y189333D01*
X165213Y190832D01*
X175207Y190832D01*
X176652Y189386D01*
X178174Y189386D01*
X176684Y190461D01*
X171560Y193753D01*
X171494Y193793D01*
X55720Y193793D01*
X52045Y191534D01*
X47163Y188165D01*
X42465Y184544D01*
X37964Y180680D01*
X33672Y176585D01*
X29602Y172269D01*
X25765Y167745D01*
X22172Y163025D01*
X18832Y158123D01*
X15755Y153051D01*
X12950Y147825D01*
X10423Y142457D01*
X8183Y136965D01*
X6235Y131362D01*
X4585Y125664D01*
X3294Y120132D01*
X3294Y119276D01*
X3013Y118995D01*
X3013Y100201D01*
X2590Y99778D01*
X2620Y95039D01*
X2978Y89096D01*
X3655Y83180D01*
X4647Y77309D01*
X5953Y71499D01*
X7569Y65768D01*
X9490Y60132D01*
X11710Y54608D01*
X14224Y49210D01*
X17023Y43954D01*
X20100Y38857D01*
X23447Y33932D01*
X27052Y29193D01*
X30907Y24655D01*
X34999Y20329D01*
X39318Y16230D01*
X43850Y12368D01*
X48583Y8755D01*
X53502Y5401D01*
X57731Y2839D01*
X67492Y2839D01*
X65465Y4866D01*
X65465Y14033D01*
X68441Y17008D01*
X73514Y17008D01*
X75962Y14560D01*
X78444Y17042D01*
X83516Y17042D01*
X85982Y14576D01*
X88415Y17008D01*
X93487Y17008D01*
X96463Y14033D01*
X96463Y4866D01*
X94436Y2839D01*
X169815Y2839D01*
X169907Y2960D01*
X137942Y4929D02*
X136904Y5967D01*
X136904Y10585D01*
X137942Y11622D01*
X147284Y11622D01*
X148322Y10585D01*
X148322Y5967D01*
X147284Y4929D01*
X137942Y4929D01*
X161081Y4142D02*
X159582Y5641D01*
X159582Y10911D01*
X161081Y12410D01*
X171075Y12410D01*
X172574Y10911D01*
X172574Y5641D01*
X171075Y4142D01*
X161081Y4142D01*
X161081Y17390D02*
X159582Y18889D01*
X159582Y24159D01*
X161081Y25658D01*
X171075Y25658D01*
X172574Y24159D01*
X172574Y18889D01*
X171075Y17390D01*
X161081Y17390D01*
X119170Y16316D02*
X116490Y18996D01*
X116490Y23478D01*
X119170Y26158D01*
X123652Y26158D01*
X125137Y24674D01*
X136632Y24674D01*
X137616Y25658D01*
X147610Y25658D01*
X149109Y24159D01*
X149109Y18889D01*
X147610Y17390D01*
X137616Y17390D01*
X136632Y18374D01*
X125711Y18374D01*
X123652Y16316D01*
X119170Y16316D01*
X38777Y23028D02*
X35703Y26102D01*
X35703Y31372D01*
X37359Y33028D01*
X37202Y33028D01*
X35703Y34527D01*
X35703Y42946D01*
X37202Y44446D01*
X45621Y44446D01*
X47120Y42946D01*
X47120Y34527D01*
X45621Y33028D01*
X45463Y33028D01*
X47120Y31372D01*
X47120Y26102D01*
X44046Y23028D01*
X38777Y23028D01*
X111996Y38353D02*
X109777Y40572D01*
X109777Y44402D01*
X111996Y46621D01*
X115826Y46621D01*
X118045Y44402D01*
X118045Y40572D01*
X115826Y38353D01*
X111996Y38353D01*
X28284Y55154D02*
X24718Y58720D01*
X24718Y64974D01*
X28284Y68540D01*
X34538Y68540D01*
X38104Y64974D01*
X38104Y58720D01*
X34538Y55154D01*
X28284Y55154D01*
X101996Y68353D02*
X99777Y70572D01*
X99777Y74402D01*
X101996Y76621D01*
X105826Y76621D01*
X108045Y74402D01*
X108045Y70572D01*
X105826Y68353D01*
X101996Y68353D01*
X26544Y69721D02*
X25506Y70759D01*
X25506Y80494D01*
X26544Y81532D01*
X36279Y81532D01*
X37317Y80494D01*
X37317Y70759D01*
X36279Y69721D01*
X26544Y69721D01*
X21721Y105331D02*
X18616Y108436D01*
X18616Y114038D01*
X21721Y117142D01*
X27322Y117142D01*
X30427Y114038D01*
X30427Y108436D01*
X27322Y105331D01*
X21721Y105331D01*
X21721Y132831D02*
X18616Y135936D01*
X18616Y141538D01*
X21721Y144642D01*
X27322Y144642D01*
X30427Y141538D01*
X30427Y135936D01*
X27322Y132831D01*
X21721Y132831D01*
X141748Y169316D02*
X140249Y170815D01*
X140249Y176085D01*
X141748Y177584D01*
X151742Y177584D01*
X153241Y176085D01*
X153241Y170815D01*
X151742Y169316D01*
X141748Y169316D01*
X141748Y182564D02*
X140249Y184063D01*
X140249Y189333D01*
X141748Y190832D01*
X151742Y190832D01*
X153241Y189333D01*
X153241Y184063D01*
X151742Y182564D01*
X141748Y182564D01*
X111080Y181385D02*
X108355Y184110D01*
X106417Y182172D01*
X101406Y182172D01*
X98596Y184981D01*
X98596Y189992D01*
X101406Y192802D01*
X106417Y192802D01*
X108355Y190864D01*
X111080Y193589D01*
X116743Y193589D01*
X120014Y190319D01*
X120014Y184655D01*
X116743Y181385D01*
X111080Y181385D01*
X158006Y109648D02*
X159526Y111168D01*
X158262Y112432D01*
X158262Y112432D01*
X155107Y115587D01*
X155107Y115587D01*
X153262Y117432D01*
X153262Y152224D01*
X151490Y153996D01*
X151490Y158478D01*
X153599Y160587D01*
X149223Y160587D01*
X151333Y158478D01*
X151333Y153996D01*
X149561Y152224D01*
X149561Y107541D01*
X152716Y104386D01*
X158006Y104386D01*
X158006Y109648D01*
X180505Y40667D02*
X185013Y40667D01*
X182037Y43643D01*
X182037Y49700D01*
X184009Y51671D01*
X182037Y53643D01*
X182037Y59700D01*
X184009Y61671D01*
X182037Y63643D01*
X182037Y69700D01*
X184009Y71671D01*
X182037Y73643D01*
X182037Y79700D01*
X184009Y81671D01*
X182037Y83643D01*
X182037Y89700D01*
X184009Y91671D01*
X182037Y93643D01*
X182037Y98087D01*
X168771Y98087D01*
X170604Y96254D01*
X170604Y90000D01*
X167038Y86434D01*
X160784Y86434D01*
X157218Y90000D01*
X157218Y96254D01*
X159052Y98087D01*
X150107Y98087D01*
X148262Y99932D01*
X148262Y99932D01*
X145107Y103087D01*
X145107Y103087D01*
X143262Y104932D01*
X143262Y152224D01*
X141490Y153996D01*
X141490Y158478D01*
X143599Y160587D01*
X135030Y160587D01*
X135030Y151674D01*
X134042Y150687D01*
X135030Y149700D01*
X135030Y143643D01*
X133058Y141671D01*
X135030Y139700D01*
X135030Y133643D01*
X133058Y131671D01*
X135030Y129700D01*
X135030Y123643D01*
X133058Y121671D01*
X135030Y119700D01*
X135030Y113643D01*
X133058Y111671D01*
X135030Y109700D01*
X135030Y103643D01*
X133058Y101671D01*
X135030Y99700D01*
X135030Y93643D01*
X133058Y91671D01*
X135030Y89700D01*
X135030Y83643D01*
X133058Y81671D01*
X135030Y79700D01*
X135030Y73643D01*
X133058Y71671D01*
X135030Y69700D01*
X135030Y63643D01*
X132501Y61115D01*
X134242Y59374D01*
X134242Y53969D01*
X132501Y52228D01*
X135030Y49700D01*
X135030Y43643D01*
X132054Y40667D01*
X136562Y40667D01*
X138533Y38696D01*
X140505Y40667D01*
X146562Y40667D01*
X148533Y38696D01*
X150505Y40667D01*
X156562Y40667D01*
X158533Y38696D01*
X160505Y40667D01*
X166562Y40667D01*
X168533Y38696D01*
X170505Y40667D01*
X176562Y40667D01*
X178533Y38696D01*
X180505Y40667D01*
X161111Y45942D02*
X158006Y49046D01*
X158006Y54648D01*
X161111Y57753D01*
X166712Y57753D01*
X169817Y54648D01*
X169817Y49046D01*
X166712Y45942D01*
X161111Y45942D01*
X160784Y58934D02*
X157218Y62500D01*
X157218Y68754D01*
X160784Y72320D01*
X167038Y72320D01*
X170604Y68754D01*
X170604Y62500D01*
X167038Y58934D01*
X160784Y58934D01*
X161111Y73442D02*
X158006Y76546D01*
X158006Y82148D01*
X161111Y85253D01*
X166712Y85253D01*
X169817Y82148D01*
X169817Y76546D01*
X166712Y73442D01*
X161111Y73442D01*
X160784Y127320D02*
X166150Y127320D01*
X176806Y137976D01*
X176806Y137976D01*
X178651Y139821D01*
X182159Y139821D01*
X184009Y141671D01*
X182037Y143643D01*
X182037Y149700D01*
X184009Y151671D01*
X182159Y153522D01*
X173150Y153522D01*
X170604Y150976D01*
X170604Y145000D01*
X167038Y141434D01*
X160784Y141434D01*
X159561Y142657D01*
X159561Y138703D01*
X161111Y140253D01*
X166712Y140253D01*
X169817Y137148D01*
X169817Y131546D01*
X166712Y128442D01*
X161111Y128442D01*
X159561Y129991D01*
X159561Y126096D01*
X160784Y127320D01*
X115544Y118136D02*
X122037Y124630D01*
X122037Y129700D01*
X124009Y131671D01*
X122495Y133185D01*
X122495Y132432D01*
X120650Y130587D01*
X120650Y130587D01*
X119995Y129932D01*
X119995Y129932D01*
X118150Y128087D01*
X112196Y128087D01*
X109789Y125680D01*
X111726Y123742D01*
X111726Y118731D01*
X111131Y118136D01*
X115544Y118136D01*
X182037Y104630D02*
X182037Y109700D01*
X182925Y110587D01*
X168877Y110587D01*
X169817Y109648D01*
X169817Y104386D01*
X181794Y104386D01*
X182037Y104630D01*
X61573Y60371D02*
X60762Y61182D01*
X60762Y62175D01*
X58958Y60371D01*
X61573Y60371D01*
X156411Y156237D02*
X156411Y118737D01*
X161411Y113737D01*
X185599Y113737D01*
X188533Y116671D01*
X146411Y106237D02*
X146411Y156237D01*
X146411Y106237D02*
X151411Y101237D01*
X183099Y101237D01*
X188533Y106671D01*
X38301Y138737D02*
X45801Y131237D01*
X56411Y131237D02*
X45801Y131237D01*
X66411Y121237D02*
X56411Y131237D01*
X91858Y102487D02*
X124349Y102487D01*
X128533Y106671D01*
X91858Y102487D02*
X73108Y121237D01*
X66411Y121237D01*
X65801Y138737D02*
X65801Y125705D01*
X73911Y123737D02*
X67770Y123737D01*
X73911Y123737D02*
X92661Y104987D01*
X120161Y104987D01*
X121411Y106237D01*
X121411Y113737D01*
X124346Y116671D01*
X128533Y116671D01*
X67770Y123737D02*
X65801Y125705D01*
X38911Y111237D02*
X45161Y104987D01*
X38911Y111237D02*
X38301Y111237D01*
X45161Y104987D02*
X80161Y104987D01*
X88911Y96237D01*
X120161Y96237D02*
X88911Y96237D01*
X120161Y96237D02*
X122661Y93737D01*
X122661Y88737D01*
X124727Y86671D01*
X128533Y86671D01*
X78911Y111237D02*
X65801Y111237D01*
X78911Y111237D02*
X90161Y99987D01*
X125218Y99987D01*
X128533Y96671D01*
X163911Y120627D02*
X179956Y136671D01*
X188533Y136671D01*
X163911Y148737D02*
X171846Y156671D01*
X163911Y148737D02*
X163911Y148127D01*
X171846Y156671D02*
X188533Y156671D01*
X97661Y109987D02*
X116411Y109987D01*
X121698Y21524D02*
X142613Y21524D01*
X121698Y21524D02*
X121411Y21237D01*
X170671Y186237D02*
X178911Y186237D01*
X170671Y186237D02*
X170210Y186698D01*
X178911Y186237D02*
X186411Y178737D01*
X186411Y171237D01*
X96411Y141237D02*
X86613Y131438D01*
X80567Y131438D01*
X80365Y131237D02*
X78911Y131237D01*
X80365Y131237D02*
X80567Y131438D01*
X83911Y61237D02*
X80841Y64307D01*
X80841Y83890D01*
X106411Y131237D02*
X116846Y131237D01*
X119346Y133737D02*
X119346Y144703D01*
X128533Y146671D02*
X121314Y146671D01*
X96411Y66237D02*
X96411Y82408D01*
X96643Y83890D01*
X119346Y133737D02*
X116846Y131237D01*
X119346Y144703D02*
X121314Y146671D01*
X116849Y114987D02*
X128533Y126671D01*
X116849Y114987D02*
X91411Y114987D01*
X91411Y73737D02*
X88806Y76343D01*
X88806Y83890D01*
X76846Y156671D02*
X128533Y156671D01*
X76846Y156671D02*
X73911Y153737D01*
X57328Y65903D02*
X57328Y83890D01*
X57328Y65903D02*
X56411Y64987D01*
X66411Y59987D02*
X63911Y62487D01*
X63911Y84045D02*
X65165Y83890D01*
X66411Y59987D02*
X74654Y59987D01*
X78911Y163737D02*
X191411Y163737D01*
X193911Y161237D01*
X193911Y92049D01*
X188533Y86671D01*
X63911Y62487D02*
X63911Y84045D01*
X74654Y59987D02*
X77376Y61459D01*
G54D25*
X102850Y49987D02*
X81411Y49987D01*
X112319Y59455D02*
X112319Y76671D01*
X128533Y76671D02*
X112319Y76671D01*
X112319Y83966D01*
X81411Y143737D02*
X86411Y148737D01*
X103911Y148737D01*
X106411Y146237D01*
X106411Y141237D01*
X81411Y138737D02*
X81411Y143737D01*
X112319Y59455D02*
X102850Y49987D01*
X97393Y58737D02*
X104473Y65818D01*
X104473Y72487D01*
X50801Y56237D02*
X31411Y75627D01*
X60161Y56237D02*
X94893Y56237D01*
X103911Y84394D02*
X104473Y83832D01*
X128099Y56237D02*
X115880Y56237D01*
X128099Y56237D02*
X128533Y56671D01*
X142613Y8276D02*
X121872Y8276D01*
X113911Y16237D01*
X113911Y42487D01*
X178911Y173737D02*
X178624Y173450D01*
X60161Y56237D02*
X50801Y56237D01*
X94893Y56237D02*
X97393Y58737D01*
X115880Y56237D02*
X113911Y54268D01*
X113911Y42487D02*
X113911Y54268D01*
X104473Y72487D02*
X104473Y83832D01*
X103911Y72487D02*
X104473Y72487D01*
G54D32*
X142613Y8276D03*
X142613Y21524D03*
X166078Y8276D03*
X166078Y21524D03*
G54D33*
X170210Y186698D03*
X170210Y173450D03*
X146745Y186698D03*
X146745Y173450D03*
G54D36*
X31411Y75627D03*
G54D37*
X81411Y49987D03*
X81411Y138737D03*
X97393Y58737D03*
X178911Y173737D03*
X60161Y56237D03*
X113911Y42487D03*
X103911Y72487D03*
X156411Y156237D03*
X146411Y156237D03*
X97661Y109987D03*
X116411Y109987D03*
X121411Y21237D03*
X186411Y171237D03*
X78911Y131237D03*
X83911Y61237D03*
X96411Y66237D03*
X91411Y114987D03*
X91411Y73737D03*
X73911Y153737D03*
X71411Y64987D03*
X56411Y64987D03*
X78911Y163737D03*
X77376Y61459D03*
G54D38*
X41411Y28737D03*
G54D39*
X113911Y187487D03*
X103911Y187487D03*
X113911Y172487D03*
X103911Y172487D03*
G54D40*
X96411Y141237D03*
X106411Y141237D03*
X96411Y131237D03*
X106411Y131237D03*
X96411Y121237D03*
X106411Y121237D03*
G54D41*
X128533Y146671D03*
X128533Y136671D03*
X128533Y126671D03*
X128533Y116671D03*
X128533Y106671D03*
X128533Y96671D03*
X128533Y86671D03*
X128533Y76671D03*
X128533Y66671D03*
X128533Y56671D03*
X128533Y46671D03*
X183533Y34171D03*
X173533Y34171D03*
X163533Y34171D03*
X153533Y34171D03*
X143533Y34171D03*
X188533Y156671D03*
X188533Y146671D03*
X188533Y136671D03*
X188533Y126671D03*
X188533Y116671D03*
X188533Y106671D03*
X188533Y96671D03*
X188533Y86671D03*
X188533Y76671D03*
X188533Y66671D03*
X188533Y56671D03*
X188533Y46671D03*
X133533Y34171D03*
G54D42*
X38301Y138737D03*
X24522Y138737D03*
X65801Y138737D03*
X52022Y138737D03*
X38301Y111237D03*
X24522Y111237D03*
X65801Y111237D03*
X52022Y111237D03*
G54D43*
X31411Y61847D03*
X163911Y120627D03*
X163911Y106847D03*
X163911Y148127D03*
X163911Y134347D03*
X163911Y65627D03*
X163911Y51847D03*
X163911Y93127D03*
X163911Y79347D03*
G54D44*
X112319Y83966D03*
X104473Y83832D03*
X96643Y83890D03*
X88806Y83890D03*
X80841Y83890D03*
X73003Y83890D03*
X65165Y83890D03*
X57328Y83890D03*
G54D45*
X90951Y9449D03*
X80980Y9483D03*
X70977Y9449D03*
G54D48*
X41411Y38737D03*
G54D49*
X128533Y156671D03*
G36*
X30230Y69674D02*
X32592Y69674D01*
X32592Y75627D01*
X30230Y75627D01*
X30230Y69674D01*
G37*
G36*
X30230Y75627D02*
X32592Y75627D01*
X32592Y81579D01*
X30230Y81579D01*
X30230Y75627D01*
G37*
G36*
X31411Y74446D02*
X37364Y74446D01*
X37364Y76808D01*
X31411Y76808D01*
X31411Y74446D01*
G37*
G36*
X25459Y74446D02*
X31411Y74446D01*
X31411Y76808D01*
X25459Y76808D01*
X25459Y74446D01*
G37*
G36*
X141563Y8276D02*
X143663Y8276D01*
X143663Y11670D01*
X141563Y11670D01*
X141563Y8276D01*
G37*
G36*
X141563Y4882D02*
X143663Y4882D01*
X143663Y8276D01*
X141563Y8276D01*
X141563Y4882D01*
G37*
G36*
X136857Y7226D02*
X142613Y7226D01*
X142613Y9326D01*
X136857Y9326D01*
X136857Y7226D01*
G37*
G36*
X142613Y7226D02*
X148369Y7226D01*
X148369Y9326D01*
X142613Y9326D01*
X142613Y7226D01*
G37*
G36*
X98549Y186437D02*
X103911Y186437D01*
X103911Y188537D01*
X98549Y188537D01*
X98549Y186437D01*
G37*
G36*
X102861Y182125D02*
X104961Y182125D01*
X104961Y187487D01*
X102861Y187487D01*
X102861Y182125D01*
G37*
G36*
X102861Y187487D02*
X104961Y187487D01*
X104961Y192849D01*
X102861Y192849D01*
X102861Y187487D01*
G37*
G36*
X98549Y171437D02*
X103911Y171437D01*
X103911Y173537D01*
X98549Y173537D01*
X98549Y171437D01*
G37*
G36*
X102861Y167125D02*
X104961Y167125D01*
X104961Y172487D01*
X102861Y172487D01*
X102861Y167125D01*
G37*
G36*
X102861Y172487D02*
X104961Y172487D01*
X104961Y177849D01*
X102861Y177849D01*
X102861Y172487D01*
G37*
G36*
X18569Y137556D02*
X24522Y137556D01*
X24522Y139918D01*
X18569Y139918D01*
X18569Y137556D01*
G37*
G36*
X24522Y137556D02*
X30474Y137556D01*
X30474Y139918D01*
X24522Y139918D01*
X24522Y137556D01*
G37*
G36*
X23340Y132784D02*
X25703Y132784D01*
X25703Y138737D01*
X23340Y138737D01*
X23340Y132784D01*
G37*
G36*
X23340Y138737D02*
X25703Y138737D01*
X25703Y144690D01*
X23340Y144690D01*
X23340Y138737D01*
G37*
G36*
X46069Y137556D02*
X52022Y137556D01*
X52022Y139918D01*
X46069Y139918D01*
X46069Y137556D01*
G37*
G36*
X52022Y137556D02*
X57974Y137556D01*
X57974Y139918D01*
X52022Y139918D01*
X52022Y137556D01*
G37*
G36*
X50840Y138737D02*
X53203Y138737D01*
X53203Y144690D01*
X50840Y144690D01*
X50840Y138737D01*
G37*
G36*
X18569Y110056D02*
X24522Y110056D01*
X24522Y112418D01*
X18569Y112418D01*
X18569Y110056D01*
G37*
G36*
X24522Y110056D02*
X30474Y110056D01*
X30474Y112418D01*
X24522Y112418D01*
X24522Y110056D01*
G37*
G36*
X23340Y105284D02*
X25703Y105284D01*
X25703Y111237D01*
X23340Y111237D01*
X23340Y105284D01*
G37*
G36*
X23340Y111237D02*
X25703Y111237D01*
X25703Y117190D01*
X23340Y117190D01*
X23340Y111237D01*
G37*
G36*
X46069Y110056D02*
X52022Y110056D01*
X52022Y112418D01*
X46069Y112418D01*
X46069Y110056D01*
G37*
G36*
X52022Y110056D02*
X57974Y110056D01*
X57974Y112418D01*
X52022Y112418D01*
X52022Y110056D01*
G37*
G36*
X50840Y111237D02*
X53203Y111237D01*
X53203Y117190D01*
X50840Y117190D01*
X50840Y111237D01*
G37*
G36*
X163911Y105666D02*
X169864Y105666D01*
X169864Y108028D01*
X163911Y108028D01*
X163911Y105666D01*
G37*
G36*
X157959Y105666D02*
X163911Y105666D01*
X163911Y108028D01*
X157959Y108028D01*
X157959Y105666D01*
G37*
G36*
X162730Y128394D02*
X165092Y128394D01*
X165092Y134347D01*
X162730Y134347D01*
X162730Y128394D01*
G37*
G36*
X162730Y134347D02*
X165092Y134347D01*
X165092Y140300D01*
X162730Y140300D01*
X162730Y134347D01*
G37*
G36*
X163911Y133166D02*
X169864Y133166D01*
X169864Y135528D01*
X163911Y135528D01*
X163911Y133166D01*
G37*
G36*
X162730Y45894D02*
X165092Y45894D01*
X165092Y51847D01*
X162730Y51847D01*
X162730Y45894D01*
G37*
G36*
X162730Y51847D02*
X165092Y51847D01*
X165092Y57800D01*
X162730Y57800D01*
X162730Y51847D01*
G37*
G36*
X163911Y50666D02*
X169864Y50666D01*
X169864Y53028D01*
X163911Y53028D01*
X163911Y50666D01*
G37*
G36*
X157959Y50666D02*
X163911Y50666D01*
X163911Y53028D01*
X157959Y53028D01*
X157959Y50666D01*
G37*
G36*
X162730Y73394D02*
X165092Y73394D01*
X165092Y79347D01*
X162730Y79347D01*
X162730Y73394D01*
G37*
G36*
X162730Y79347D02*
X165092Y79347D01*
X165092Y85300D01*
X162730Y85300D01*
X162730Y79347D01*
G37*
G36*
X163911Y78166D02*
X169864Y78166D01*
X169864Y80528D01*
X163911Y80528D01*
X163911Y78166D01*
G37*
G36*
X157959Y78166D02*
X163911Y78166D01*
X163911Y80528D01*
X157959Y80528D01*
X157959Y78166D01*
G37*
G36*
X122778Y55490D02*
X128533Y55490D01*
X128533Y57853D01*
X122778Y57853D01*
X122778Y55490D01*
G37*
G36*
X128533Y55490D02*
X134289Y55490D01*
X134289Y57853D01*
X128533Y57853D01*
X128533Y55490D01*
G37*
G36*
X103292Y77013D02*
X105655Y77013D01*
X105655Y83832D01*
X103292Y83832D01*
X103292Y77013D01*
G37*
G36*
X103292Y83832D02*
X105655Y83832D01*
X105655Y90650D01*
X103292Y90650D01*
X103292Y83832D01*
G37*
G36*
X169160Y170056D02*
X171259Y170056D01*
X171259Y173450D01*
X169160Y173450D01*
X169160Y170056D01*
G37*
G36*
X169160Y173450D02*
X171259Y173450D01*
X171259Y176844D01*
X169160Y176844D01*
X169160Y173450D01*
G37*
G36*
X164454Y172400D02*
X170210Y172400D01*
X170210Y174500D01*
X164454Y174500D01*
X164454Y172400D01*
G37*
G36*
X106411Y120056D02*
X111774Y120056D01*
X111774Y122418D01*
X106411Y122418D01*
X106411Y120056D01*
G37*
G36*
X97393Y57949D02*
X101574Y57949D01*
X101574Y59524D01*
X97393Y59524D01*
X97393Y57949D01*
G37*
G36*
X93212Y57949D02*
X97393Y57949D01*
X97393Y59524D01*
X93212Y59524D01*
X93212Y57949D01*
G37*
G36*
X96605Y54556D02*
X98180Y54556D01*
X98180Y58737D01*
X96605Y58737D01*
X96605Y54556D01*
G37*
G36*
X178124Y173737D02*
X179699Y173737D01*
X179699Y177918D01*
X178124Y177918D01*
X178124Y173737D01*
G37*
G36*
X178124Y169556D02*
X179699Y169556D01*
X179699Y173737D01*
X178124Y173737D01*
X178124Y169556D01*
G37*
G36*
X60161Y55449D02*
X64342Y55449D01*
X64342Y57024D01*
X60161Y57024D01*
X60161Y55449D01*
G37*
G36*
X55980Y55449D02*
X60161Y55449D01*
X60161Y57024D01*
X55980Y57024D01*
X55980Y55449D01*
G37*
G36*
X59374Y56237D02*
X60949Y56237D01*
X60949Y60418D01*
X59374Y60418D01*
X59374Y56237D01*
G37*
G36*
X59374Y52056D02*
X60949Y52056D01*
X60949Y56237D01*
X59374Y56237D01*
X59374Y52056D01*
G37*
G36*
X113911Y41699D02*
X118092Y41699D01*
X118092Y43274D01*
X113911Y43274D01*
X113911Y41699D01*
G37*
G36*
X109730Y41699D02*
X113911Y41699D01*
X113911Y43274D01*
X109730Y43274D01*
X109730Y41699D01*
G37*
G36*
X113124Y42487D02*
X114699Y42487D01*
X114699Y46668D01*
X113124Y46668D01*
X113124Y42487D01*
G37*
G36*
X113124Y38306D02*
X114699Y38306D01*
X114699Y42487D01*
X113124Y42487D01*
X113124Y38306D01*
G37*
G36*
X103911Y71699D02*
X108092Y71699D01*
X108092Y73274D01*
X103911Y73274D01*
X103911Y71699D01*
G37*
G36*
X99730Y71699D02*
X103911Y71699D01*
X103911Y73274D01*
X99730Y73274D01*
X99730Y71699D01*
G37*
G36*
X103124Y72487D02*
X104699Y72487D01*
X104699Y76668D01*
X103124Y76668D01*
X103124Y72487D01*
G37*
G36*
X103124Y68306D02*
X104699Y68306D01*
X104699Y72487D01*
X103124Y72487D01*
X103124Y68306D01*
G37*
M02*
